<?xml version="1.0" standalone="no"?>
<!DOCTYPE svg PUBLIC "-//W3C//DTD SVG 20010904//EN"
 "http://www.w3.org/TR/2001/REC-SVG-20010904/DTD/svg10.dtd">
<svg version="1.0" xmlns="http://www.w3.org/2000/svg"
 width="48.000000pt" height="48.000000pt" viewBox="0 0 48.000000 48.000000"
 preserveAspectRatio="xMidYMid meet">
<metadata>
Created by potrace 1.14, written by Peter Selinger 2001-2017
</metadata>
<g transform="translate(0.000000,48.000000) scale(0.100000,-0.100000)"
fill="#000000" stroke="none">
<path d="M213 413 c-7 -2 -13 -11 -13 -19 0 -8 -9 -23 -20 -34 -14 -14 -20
-33 -20 -62 0 -56 -17 -114 -42 -149 -22 -30 -18 -59 7 -59 9 0 14 4 10 9 -3
6 3 14 13 20 10 5 27 28 37 50 10 23 22 41 26 41 9 0 49 -54 49 -68 0 -24 33
-72 50 -72 13 0 17 5 14 15 -4 8 -10 15 -14 15 -4 0 -8 15 -8 33 0 31 -34 111
-53 123 -16 9 -10 44 9 50 9 3 28 11 41 17 19 9 25 9 28 0 7 -19 21 -16 19 4
-1 12 9 19 29 23 42 8 20 17 -50 21 -50 3 -61 7 -65 24 -6 20 -25 28 -47 18z"/>
</g>
</svg>
